STARTFONT 2.1
FONT -sun-helmet-bold-r-normal--17-170-75-75-p-107-adobe-fontspecific
SIZE 17 75 75
FONTBOUNDINGBOX 23 21 -4 -4

STARTPROPERTIES 28
FOUNDRY "sun"
FAMILY_NAME "helmet"
WEIGHT_NAME "bold"
SLANT "r"
SETWIDTH_NAME "normal"
ADD_STYLE_NAME ""
PIXEL_SIZE 18
POINT_SIZE 170
RESOLUTION_X 75
RESOLUTION_Y 75
SPACING "p"
AVERAGE_WIDTH 107
CHARSET_REGISTRY "adobe"
CHARSET_ENCODING "fontspecific"
COPYRIGHT "© 1999 Sun Microsystems, Inc."
RAW_PIXELSIZE 1000
RAW_POINTSIZE 964
RAW_ASCENT 945
RAW_DESCENT 196
RAW_AVERAGE_WIDTH 6034
FACE_NAME "HelmetBoldItalic5"
_XMBDFED_INFO "Edited with xmbdfed 2.4."
WEIGHT 10
X_HEIGHT -1
QUAD_WIDTH 10
DEFAULT_CHAR 4
FONT_DESCENT 4
FONT_ASCENT 17
ENDPROPERTIES

CHARS 202

STARTCHAR char32
ENCODING 32
SWIDTH 30 0
DWIDTH 6 0
BBX 0 0 0 0
BITMAP
ENDCHAR

STARTCHAR char33
ENCODING 33
SWIDTH 30 0
DWIDTH 6 0
BBX 4 12 1 0
BITMAP
70
70
70
70
70
60
20
00
F0
F0
F0
F0
ENDCHAR

STARTCHAR char34
ENCODING 34
SWIDTH 45 0
DWIDTH 9 0
BBX 7 6 1 6
BITMAP
EE
EE
EE
EE
46
CC
ENDCHAR

STARTCHAR char35
ENCODING 35
SWIDTH 50 0
DWIDTH 10 0
BBX 9 13 0 0
BITMAP
1100
1100
1300
1300
7F80
1200
3200
3200
FF00
2600
2400
2400
2400
ENDCHAR

STARTCHAR char36
ENCODING 36
SWIDTH 14 0
DWIDTH 13 0
BBX 11 14 0 -1
BITMAP
0F00
3F80
7FC0
7FC0
7E00
7F00
3FC0
1FE0
07E0
F4E0
7FE0
7FC0
1F80
0600
ENDCHAR

STARTCHAR char37
ENCODING 37
SWIDTH 39 0
DWIDTH 18 0
BBX 16 13 0 0
BITMAP
3830
7C20
FE60
C660
C6CC
CFDE
FFBF
7FB3
3B33
0733
073F
0E1E
020C
ENDCHAR

STARTCHAR char38
ENCODING 38
SWIDTH 14 0
DWIDTH 13 0
BBX 13 12 0 0
BITMAP
0F00
3FC0
3BC0
3FC0
1F80
3F00
7F70
F7E0
F3E0
FFE0
7FF0
3E78
ENDCHAR

STARTCHAR char39
ENCODING 39
SWIDTH 25 0
DWIDTH 5 0
BBX 3 7 1 6
BITMAP
20
60
C0
E0
E0
E0
E0
ENDCHAR

STARTCHAR char40
ENCODING 40
SWIDTH 35 0
DWIDTH 7 0
BBX 5 16 1 -3
BITMAP
38
78
70
F0
F0
E0
E0
E0
E0
E0
E0
E0
F0
70
78
38
ENDCHAR

STARTCHAR char41
ENCODING 41
SWIDTH 35 0
DWIDTH 7 0
BBX 5 16 0 -3
BITMAP
E0
70
70
70
38
38
38
38
38
38
38
78
78
70
70
70
ENDCHAR

STARTCHAR char42
ENCODING 42
SWIDTH 40 0
DWIDTH 8 0
BBX 7 7 0 5
BITMAP
18
DA
FE
38
7C
6E
24
ENDCHAR

STARTCHAR char43
ENCODING 43
SWIDTH 14 0
DWIDTH 13 0
BBX 10 10 1 0
BITMAP
0C00
0C00
0C00
FFC0
FFC0
FFC0
0C00
0C00
0C00
0C00
ENDCHAR

STARTCHAR char44
ENCODING 44
SWIDTH 30 0
DWIDTH 6 0
BBX 3 7 1 -3
BITMAP
20
E0
E0
E0
60
E0
C0
ENDCHAR

STARTCHAR char45
ENCODING 45
SWIDTH 35 0
DWIDTH 7 0
BBX 6 3 0 3
BITMAP
FC
FC
FC
ENDCHAR

STARTCHAR char46
ENCODING 46
SWIDTH 30 0
DWIDTH 6 0
BBX 3 3 1 0
BITMAP
E0
E0
E0
ENDCHAR

STARTCHAR char47
ENCODING 47
SWIDTH 40 0
DWIDTH 8 0
BBX 8 13 0 0
BITMAP
0F
0E
0E
1E
1C
1C
3C
38
38
78
70
70
F0
ENDCHAR

STARTCHAR char48
ENCODING 48
SWIDTH 14 0
DWIDTH 13 0
BBX 11 12 0 0
BITMAP
1F00
3F80
7FC0
F1E0
E0E0
E0E0
E0E0
F0E0
F1E0
7FC0
3F80
1F00
ENDCHAR

STARTCHAR char49
ENCODING 49
SWIDTH 14 0
DWIDTH 13 0
BBX 6 12 2 0
BITMAP
0C
1C
FC
FC
FC
1C
1C
1C
1C
1C
1C
1C
ENDCHAR

STARTCHAR char50
ENCODING 50
SWIDTH 14 0
DWIDTH 13 0
BBX 10 12 1 0
BITMAP
3E00
7F00
FF80
E380
E380
0700
1F00
3C00
7800
FFC0
FFC0
FFC0
ENDCHAR

STARTCHAR char51
ENCODING 51
SWIDTH 14 0
DWIDTH 13 0
BBX 9 12 1 0
BITMAP
1E00
7F00
7F80
E380
0F00
0F00
0F80
E380
E380
FF80
7F00
3E00
ENDCHAR

STARTCHAR char52
ENCODING 52
SWIDTH 14 0
DWIDTH 13 0
BBX 10 12 1 0
BITMAP
0700
0F00
1F00
3F00
7700
E700
FFC0
FFC0
FFC0
0700
0700
0700
ENDCHAR

STARTCHAR char53
ENCODING 53
SWIDTH 14 0
DWIDTH 13 0
BBX 11 12 0 0
BITMAP
3FC0
3FC0
3FC0
3F80
7FC0
7FE0
71E0
00E0
F1E0
7FE0
3FC0
1F00
ENDCHAR

STARTCHAR char54
ENCODING 54
SWIDTH 14 0
DWIDTH 13 0
BBX 10 13 1 0
BITMAP
1F00
3F80
7F80
73C0
EF00
FF80
FFC0
F3C0
E1C0
E3C0
7FC0
3F80
1E00
ENDCHAR

STARTCHAR char55
ENCODING 55
SWIDTH 14 0
DWIDTH 13 0
BBX 10 12 1 0
BITMAP
FFC0
FFC0
FFC0
0780
0F00
0E00
1E00
1C00
1C00
3800
3800
3800
ENDCHAR

STARTCHAR char56
ENCODING 56
SWIDTH 14 0
DWIDTH 13 0
BBX 10 13 1 0
BITMAP
1E00
7F80
7F80
6380
6380
7780
7F80
7FC0
E1C0
E1C0
FFC0
7F80
3F00
ENDCHAR

STARTCHAR char57
ENCODING 57
SWIDTH 14 0
DWIDTH 13 0
BBX 10 12 1 0
BITMAP
3E00
7F80
FF80
E3C0
E3C0
F7C0
FFC0
7FC0
3FC0
FF80
7F00
3E00
ENDCHAR

STARTCHAR char58
ENCODING 58
SWIDTH 30 0
DWIDTH 6 0
BBX 3 9 2 0
BITMAP
E0
E0
E0
E0
00
E0
E0
E0
E0
ENDCHAR

STARTCHAR char59
ENCODING 59
SWIDTH 30 0
DWIDTH 6 0
BBX 3 12 2 -3
BITMAP
E0
E0
E0
E0
00
E0
E0
E0
E0
60
E0
C0
ENDCHAR

STARTCHAR char60
ENCODING 60
SWIDTH 4 0
DWIDTH 11 0
BBX 9 9 1 0
BITMAP
0180
0700
1800
6000
8000
E000
1800
0700
0180
ENDCHAR

STARTCHAR char61
ENCODING 61
SWIDTH 14 0
DWIDTH 13 0
BBX 12 7 0 2
BITMAP
FFF0
FFF0
FFF0
0000
FFF0
FFF0
FFF0
ENDCHAR

STARTCHAR char62
ENCODING 62
SWIDTH 4 0
DWIDTH 11 0
BBX 9 9 1 0
BITMAP
8000
E000
1800
0700
0180
0700
1800
6000
8000
ENDCHAR

STARTCHAR char63
ENCODING 63
SWIDTH 4 0
DWIDTH 11 0
BBX 9 12 1 0
BITMAP
3E00
7F80
FB80
F380
0F80
1F00
1C00
0000
1C00
1C00
1C00
1C00
ENDCHAR

STARTCHAR char64
ENCODING 64
SWIDTH 44 0
DWIDTH 19 0
BBX 14 13 2 0
BITMAP
07C0
1860
3018
67A8
6CEC
D84C
D84C
D8C8
D990
6EE0
3018
1830
0FC0
ENDCHAR

STARTCHAR char65
ENCODING 65
SWIDTH 14 0
DWIDTH 13 0
BBX 13 12 0 0
BITMAP
0F00
0F80
1F80
1F80
3FC0
3DC0
39E0
7FE0
7FE0
FFF0
F0F0
7070
ENDCHAR

STARTCHAR char66
ENCODING 66
SWIDTH 14 0
DWIDTH 13 0
BBX 11 12 1 0
BITMAP
FF80
FFC0
E7C0
E1C0
FF80
FFC0
FFE0
E1E0
E1E0
FFE0
FFC0
FF80
ENDCHAR

STARTCHAR char67
ENCODING 67
SWIDTH 19 0
DWIDTH 14 0
BBX 11 12 1 0
BITMAP
1F00
3FC0
7FE0
71E0
E000
E000
E000
E1E0
71E0
7FE0
3FC0
1F00
ENDCHAR

STARTCHAR char68
ENCODING 68
SWIDTH 19 0
DWIDTH 14 0
BBX 11 12 1 0
BITMAP
FF00
FF80
FFC0
E1E0
E0E0
E0E0
E0E0
E1E0
E3E0
FFC0
FF80
FF00
ENDCHAR

STARTCHAR char69
ENCODING 69
SWIDTH 14 0
DWIDTH 13 0
BBX 11 12 1 0
BITMAP
FFC0
FFC0
FFC0
F000
FFC0
FFC0
FFC0
E000
E000
FFE0
FFE0
FFE0
ENDCHAR

STARTCHAR char70
ENCODING 70
SWIDTH 9 0
DWIDTH 12 0
BBX 10 12 1 0
BITMAP
FFC0
FFC0
FFC0
E000
E000
FF80
FF80
FF80
E000
E000
E000
E000
ENDCHAR

STARTCHAR char71
ENCODING 71
SWIDTH 24 0
DWIDTH 15 0
BBX 12 12 1 0
BITMAP
1F80
3FC0
7FE0
F0F0
E000
E1F0
E1F0
E1F0
70F0
7FF0
3FF0
1F30
ENDCHAR

STARTCHAR char72
ENCODING 72
SWIDTH 19 0
DWIDTH 14 0
BBX 11 12 1 0
BITMAP
E0E0
E0E0
E0E0
E0E0
FFE0
FFE0
FFE0
E0E0
E0E0
E0E0
E0E0
E0E0
ENDCHAR

STARTCHAR char73
ENCODING 73
SWIDTH 30 0
DWIDTH 6 0
BBX 3 12 1 0
BITMAP
E0
E0
E0
E0
E0
E0
E0
E0
E0
E0
E0
E0
ENDCHAR

STARTCHAR char74
ENCODING 74
SWIDTH 4 0
DWIDTH 11 0
BBX 9 12 0 0
BITMAP
0380
0380
0380
0380
0380
0380
0380
E380
E780
FF80
7F00
3E00
ENDCHAR

STARTCHAR char75
ENCODING 75
SWIDTH 19 0
DWIDTH 14 0
BBX 13 12 1 0
BITMAP
E1E0
E3E0
F7C0
FF00
FE00
FF00
FF80
F780
E3C0
E3E0
E1E0
E1F0
ENDCHAR

STARTCHAR char76
ENCODING 76
SWIDTH 4 0
DWIDTH 11 0
BBX 9 12 1 0
BITMAP
E000
E000
E000
E000
E000
E000
E000
E000
E000
FF80
FF80
FF80
ENDCHAR

STARTCHAR char77
ENCODING 77
SWIDTH 29 0
DWIDTH 16 0
BBX 13 12 1 0
BITMAP
F8F8
F8F8
F9F8
FDF8
FDF8
FDB8
EFB8
EFB8
EFB8
EF38
E738
E718
ENDCHAR

STARTCHAR char78
ENCODING 78
SWIDTH 19 0
DWIDTH 14 0
BBX 11 12 1 0
BITMAP
E0E0
F0E0
F8E0
FCE0
FEE0
FFE0
EFE0
E7E0
E7E0
E3E0
E1E0
E0E0
ENDCHAR

STARTCHAR char79
ENCODING 79
SWIDTH 24 0
DWIDTH 15 0
BBX 12 12 1 0
BITMAP
1F00
3FC0
7FE0
F0F0
E0F0
E070
E070
E0F0
71E0
7FE0
3FC0
1F00
ENDCHAR

STARTCHAR char80
ENCODING 80
SWIDTH 14 0
DWIDTH 13 0
BBX 10 12 1 0
BITMAP
FF00
FF80
FFC0
E1C0
E1C0
FFC0
FFC0
FF80
E000
E000
E000
E000
ENDCHAR

STARTCHAR char81
ENCODING 81
SWIDTH 24 0
DWIDTH 15 0
BBX 12 13 1 -1
BITMAP
1F00
3FC0
7FE0
70F0
E070
E070
E170
F3F0
F3E0
7FE0
3FE0
0F70
0020
ENDCHAR

STARTCHAR char82
ENCODING 82
SWIDTH 14 0
DWIDTH 13 0
BBX 12 12 1 0
BITMAP
FF80
FFC0
FFE0
E0E0
E1E0
FFC0
FF80
FFE0
F1E0
F1E0
F0E0
F0E0
ENDCHAR

STARTCHAR char83
ENCODING 83
SWIDTH 14 0
DWIDTH 13 0
BBX 11 12 0 0
BITMAP
1F00
3FC0
7FC0
7800
7F00
3FC0
0FE0
01E0
F0E0
7FE0
3FC0
1F00
ENDCHAR

STARTCHAR char84
ENCODING 84
SWIDTH 4 0
DWIDTH 11 0
BBX 11 12 0 0
BITMAP
FFE0
FFE0
FFE0
0E00
0E00
0E00
0E00
0E00
0E00
0E00
0E00
0E00
ENDCHAR

STARTCHAR char85
ENCODING 85
SWIDTH 19 0
DWIDTH 14 0
BBX 11 12 1 0
BITMAP
E0E0
E0E0
E0E0
E0E0
E0E0
E0E0
E0E0
E0E0
F1E0
FFE0
7FC0
1F00
ENDCHAR

STARTCHAR char86
ENCODING 86
SWIDTH 9 0
DWIDTH 12 0
BBX 11 12 0 0
BITMAP
F0E0
F1E0
F1E0
79C0
7BC0
7BC0
3B80
3F80
3F80
1F00
1F00
1F00
ENDCHAR

STARTCHAR char87
ENCODING 87
SWIDTH 39 0
DWIDTH 18 0
BBX 16 12 0 0
BITMAP
F3C7
F3CF
F3CF
73EF
77EE
7FEE
7FFE
3E7E
3E7C
3E7C
3E7C
1E78
ENDCHAR

STARTCHAR char88
ENCODING 88
SWIDTH 19 0
DWIDTH 14 0
BBX 13 12 0 0
BITMAP
F8F0
79F0
3DE0
3FC0
1F80
0F80
1F80
3FC0
3FE0
7DE0
F9F0
70F8
ENDCHAR

STARTCHAR char89
ENCODING 89
SWIDTH 14 0
DWIDTH 13 0
BBX 12 12 0 0
BITMAP
F0E0
78F0
7DE0
3FE0
1FC0
0F80
0F80
0700
0700
0700
0700
0700
ENDCHAR

STARTCHAR char90
ENCODING 90
SWIDTH 9 0
DWIDTH 12 0
BBX 11 12 0 0
BITMAP
FFE0
FFE0
FFE0
03C0
0780
0F00
1E00
3C00
7800
FFE0
FFE0
FFE0
ENDCHAR

STARTCHAR char91
ENCODING 91
SWIDTH 40 0
DWIDTH 8 0
BBX 6 15 2 -3
BITMAP
FC
FC
FC
E0
E0
E0
E0
E0
E0
E0
E0
E0
FC
FC
FC
ENDCHAR

STARTCHAR char92
ENCODING 92
SWIDTH 25 0
DWIDTH 5 0
BBX 5 13 0 0
BITMAP
80
80
40
40
40
60
20
20
30
10
10
18
08
ENDCHAR

STARTCHAR char93
ENCODING 93
SWIDTH 40 0
DWIDTH 8 0
BBX 6 15 0 -3
BITMAP
FC
FC
FC
1C
1C
1C
1C
1C
1C
1C
1C
1C
FC
FC
FC
ENDCHAR

STARTCHAR char94
ENCODING 94
SWIDTH 0 0
DWIDTH 0 0
BBX 8 3 -4 13
BITMAP
3C
7E
F6
ENDCHAR

STARTCHAR char95
ENCODING 95
SWIDTH 4 0
DWIDTH 11 0
BBX 10 1 0 -2
BITMAP
FFC0
ENDCHAR

STARTCHAR char96
ENCODING 96
SWIDTH 0 0
DWIDTH 0 0
BBX 5 3 -3 10
BITMAP
F0
70
70
ENDCHAR

STARTCHAR char97
ENCODING 97
SWIDTH 4 0
DWIDTH 11 0
BBX 10 9 0 0
BITMAP
3F00
7F80
73C0
07C0
7FC0
F9C0
FBC0
FFC0
79C0
ENDCHAR

STARTCHAR char98
ENCODING 98
SWIDTH 9 0
DWIDTH 12 0
BBX 10 12 1 0
BITMAP
E000
E000
E000
EF00
FF80
FFC0
E3C0
E1C0
E3C0
FFC0
FF80
EF00
ENDCHAR

STARTCHAR char99
ENCODING 99
SWIDTH 4 0
DWIDTH 11 0
BBX 10 9 0 0
BITMAP
1F00
7F80
7FC0
E000
E000
F1C0
FFC0
7F80
1F00
ENDCHAR

STARTCHAR char100
ENCODING 100
SWIDTH 9 0
DWIDTH 12 0
BBX 10 12 0 0
BITMAP
01C0
01C0
01C0
3DC0
7FC0
FFC0
F1C0
E1C0
F1C0
FFC0
7FC0
3DC0
ENDCHAR

STARTCHAR char101
ENCODING 101
SWIDTH 4 0
DWIDTH 11 0
BBX 10 9 0 0
BITMAP
1F00
7F80
7FC0
F9C0
FFC0
F0C0
7FC0
7F80
1F00
ENDCHAR

STARTCHAR char102
ENCODING 102
SWIDTH 35 0
DWIDTH 7 0
BBX 7 13 0 0
BITMAP
0A
3C
3C
38
FC
FC
FC
38
38
38
38
38
38
ENDCHAR

STARTCHAR char103
ENCODING 103
SWIDTH 9 0
DWIDTH 12 0
BBX 10 12 0 -3
BITMAP
3DC0
7FC0
FFC0
E1C0
E1C0
F3C0
FFC0
7FC0
3DC0
7BC0
7F80
1F00
ENDCHAR

STARTCHAR char104
ENCODING 104
SWIDTH 9 0
DWIDTH 12 0
BBX 9 12 1 0
BITMAP
E000
E000
E000
EF00
FF80
FF80
E380
E380
E380
E380
E380
E380
ENDCHAR

STARTCHAR char105
ENCODING 105
SWIDTH 30 0
DWIDTH 6 0
BBX 3 12 1 0
BITMAP
E0
E0
E0
E0
E0
E0
E0
E0
E0
E0
E0
E0
ENDCHAR

STARTCHAR char106
ENCODING 106
SWIDTH 30 0
DWIDTH 6 0
BBX 5 15 -1 -3
BITMAP
38
38
38
38
38
38
38
38
38
38
38
38
F8
F8
F0
ENDCHAR

STARTCHAR char107
ENCODING 107
SWIDTH 4 0
DWIDTH 11 0
BBX 10 12 1 0
BITMAP
E000
E000
E000
E780
EF00
EE00
FC00
FE00
FF00
EF00
E780
E3C0
ENDCHAR

STARTCHAR char108
ENCODING 108
SWIDTH 30 0
DWIDTH 6 0
BBX 3 12 1 0
BITMAP
E0
E0
E0
E0
E0
E0
E0
E0
E0
E0
E0
E0
ENDCHAR

STARTCHAR char109
ENCODING 109
SWIDTH 39 0
DWIDTH 18 0
BBX 14 9 1 0
BITMAP
EF38
FFFC
FFFC
E79C
E79C
E39C
E39C
E39C
E39C
ENDCHAR

STARTCHAR char110
ENCODING 110
SWIDTH 9 0
DWIDTH 12 0
BBX 9 9 1 0
BITMAP
EF00
FF00
FF80
E380
E380
E380
E380
E380
E380
ENDCHAR

STARTCHAR char111
ENCODING 111
SWIDTH 4 0
DWIDTH 11 0
BBX 10 9 0 0
BITMAP
1E00
7F80
7FC0
E1C0
E1C0
F1C0
FF80
7F80
1E00
ENDCHAR

STARTCHAR char112
ENCODING 112
SWIDTH 9 0
DWIDTH 12 0
BBX 10 12 1 -3
BITMAP
EF00
FF80
FFC0
E3C0
E1C0
E1C0
FFC0
FF80
EF00
E000
E000
E000
ENDCHAR

STARTCHAR char113
ENCODING 113
SWIDTH 9 0
DWIDTH 12 0
BBX 10 12 0 -3
BITMAP
3DC0
7FC0
FFC0
E1C0
E1C0
F1C0
FFC0
7FC0
3DC0
01C0
01C0
01C0
ENDCHAR

STARTCHAR char114
ENCODING 114
SWIDTH 45 0
DWIDTH 9 0
BBX 7 9 1 0
BITMAP
EE
FE
FE
F0
E0
E0
E0
E0
E0
ENDCHAR

STARTCHAR char115
ENCODING 115
SWIDTH 50 0
DWIDTH 10 0
BBX 9 9 0 0
BITMAP
1E00
7F00
7380
7E00
3F00
0F80
FF80
7F00
1E00
ENDCHAR

STARTCHAR char116
ENCODING 116
SWIDTH 35 0
DWIDTH 7 0
BBX 7 12 0 0
BITMAP
78
78
78
FC
FC
FC
70
70
70
7E
7C
3C
ENDCHAR

STARTCHAR char117
ENCODING 117
SWIDTH 9 0
DWIDTH 12 0
BBX 9 9 1 0
BITMAP
E380
E380
E380
E380
E380
E380
FF80
7F80
7B80
ENDCHAR

STARTCHAR char118
ENCODING 118
SWIDTH 50 0
DWIDTH 10 0
BBX 10 9 0 0
BITMAP
E380
F380
7780
7780
7F00
3F00
3F00
3E00
1E00
ENDCHAR

STARTCHAR char119
ENCODING 119
SWIDTH 29 0
DWIDTH 16 0
BBX 15 9 0 0
BITMAP
E39C
F79E
F7DE
77DC
76FC
7EFC
3EF8
3CF8
3C70
ENDCHAR

STARTCHAR char120
ENCODING 120
SWIDTH 4 0
DWIDTH 11 0
BBX 10 9 0 0
BITMAP
7380
7F80
3F00
3E00
1E00
3F00
7F00
FF80
73C0
ENDCHAR

STARTCHAR char121
ENCODING 121
SWIDTH 4 0
DWIDTH 11 0
BBX 10 12 0 -3
BITMAP
F380
F3C0
7380
7780
7F00
3F00
3F00
1E00
1E00
7E00
7C00
7800
ENDCHAR

STARTCHAR char122
ENCODING 122
SWIDTH 50 0
DWIDTH 10 0
BBX 9 9 0 0
BITMAP
FF80
FF80
FF80
0F00
3E00
7800
FF80
FF80
FF80
ENDCHAR

STARTCHAR char123
ENCODING 123
SWIDTH 30 0
DWIDTH 6 0
BBX 4 15 1 -3
BITMAP
30
60
60
60
60
60
40
80
40
40
60
60
60
60
30
ENDCHAR

STARTCHAR char124
ENCODING 124
SWIDTH 25 0
DWIDTH 5 0
BBX 2 13 1 0
BITMAP
C0
C0
C0
C0
C0
C0
C0
C0
C0
C0
C0
C0
C0
ENDCHAR

STARTCHAR char125
ENCODING 125
SWIDTH 30 0
DWIDTH 6 0
BBX 4 15 1 -3
BITMAP
C0
60
60
60
60
60
30
10
20
60
60
60
60
60
C0
ENDCHAR

STARTCHAR char126
ENCODING 126
SWIDTH 0 0
DWIDTH 0 0
BBX 6 3 -3 13
BITMAP
FC
FC
DC
ENDCHAR

STARTCHAR char128
ENCODING 128
SWIDTH 19 0
DWIDTH 14 0
BBX 14 12 -1 0
BITMAP
03C0
0FF0
1FF8
1C3C
FFC0
3800
FF80
3C3C
1E7C
1FF8
0FF0
03E0
ENDCHAR

STARTCHAR char130
ENCODING 130
SWIDTH 25 0
DWIDTH 5 0
BBX 3 7 1 -3
BITMAP
20
E0
E0
E0
60
E0
C0
ENDCHAR

STARTCHAR char131
ENCODING 131
SWIDTH 0 0
DWIDTH 0 0
BBX 8 3 -4 13
BITMAP
3C
7E
F6
ENDCHAR

STARTCHAR char132
ENCODING 132
SWIDTH 45 0
DWIDTH 9 0
BBX 7 7 1 -3
BITMAP
EE
EE
EE
EE
66
EC
C8
ENDCHAR

STARTCHAR char133
ENCODING 133
SWIDTH 44 0
DWIDTH 19 0
BBX 14 3 2 0
BITMAP
C30C
C30C
C30C
ENDCHAR

STARTCHAR char134
ENCODING 134
SWIDTH 50 0
DWIDTH 10 0
BBX 10 15 0 -3
BITMAP
1C00
1C00
1C00
FFC0
FFC0
FFC0
1C00
1C00
1C00
1C00
1C00
1C00
1C00
1C00
1C00
ENDCHAR

STARTCHAR char136
ENCODING 136
SWIDTH 0 0
DWIDTH 0 0
BBX 6 3 -3 10
BITMAP
78
F8
FC
ENDCHAR

STARTCHAR char138
ENCODING 138
SWIDTH 39 0
DWIDTH 18 0
BBX 0 0 0 0
BITMAP
ENDCHAR

STARTCHAR char139
ENCODING 139
SWIDTH 30 0
DWIDTH 6 0
BBX 2 6 2 2
BITMAP
40
40
80
80
C0
40
ENDCHAR

STARTCHAR char140
ENCODING 140
SWIDTH 3 0
DWIDTH 21 0
BBX 18 12 1 0
BITMAP
1FFF80
3FFF80
7FFF80
70F000
E0FF80
E0FF80
E0FF80
E0F000
71F000
7FFFC0
3FFFC0
1FFFC0
ENDCHAR

STARTCHAR char141
ENCODING 141
SWIDTH 39 0
DWIDTH 18 0
BBX 0 0 0 0
BITMAP
ENDCHAR

STARTCHAR char145
ENCODING 145
SWIDTH 30 0
DWIDTH 6 0
BBX 3 6 1 6
BITMAP
60
C0
E0
E0
E0
E0
ENDCHAR

STARTCHAR char146
ENCODING 146
SWIDTH 30 0
DWIDTH 6 0
BBX 3 6 1 6
BITMAP
E0
E0
E0
E0
60
C0
ENDCHAR

STARTCHAR char147
ENCODING 147
SWIDTH 45 0
DWIDTH 9 0
BBX 7 6 1 6
BITMAP
66
CC
EE
EE
EE
EE
ENDCHAR

STARTCHAR char148
ENCODING 148
SWIDTH 45 0
DWIDTH 9 0
BBX 7 6 1 6
BITMAP
EE
EE
EE
EE
46
CC
ENDCHAR

STARTCHAR char149
ENCODING 149
SWIDTH 30 0
DWIDTH 6 0
BBX 5 5 0 4
BITMAP
70
F8
F8
F8
70
ENDCHAR

STARTCHAR char150
ENCODING 150
SWIDTH 14 0
DWIDTH 13 0
BBX 10 3 1 3
BITMAP
FFC0
FFC0
FFC0
ENDCHAR

STARTCHAR char151
ENCODING 151
SWIDTH 14 0
DWIDTH 13 0
BBX 12 3 0 4
BITMAP
FFF0
FFF0
FFF0
ENDCHAR

STARTCHAR char152
ENCODING 152
SWIDTH 0 0
DWIDTH 0 0
BBX 7 3 -3 10
BITMAP
E2
FC
F8
ENDCHAR

STARTCHAR char153
ENCODING 153
SWIDTH 29 0
DWIDTH 16 0
BBX 14 7 0 5
BITMAP
FF0C
AD0C
2194
2194
215C
216C
733C
ENDCHAR

STARTCHAR char155
ENCODING 155
SWIDTH 30 0
DWIDTH 6 0
BBX 2 6 2 2
BITMAP
80
80
40
40
C0
80
ENDCHAR

STARTCHAR char156
ENCODING 156
SWIDTH 39 0
DWIDTH 18 0
BBX 16 9 0 0
BITMAP
1E18
7FFE
73FE
F1E7
E1FF
E3C7
FFCF
7FFE
1E78
ENDCHAR

STARTCHAR char157
ENCODING 157
SWIDTH 39 0
DWIDTH 18 0
BBX 0 0 0 0
BITMAP
ENDCHAR

STARTCHAR char159
ENCODING 159
SWIDTH 14 0
DWIDTH 13 0
BBX 12 16 0 0
BITMAP
3B80
3B80
3B80
F0F0
F1F0
79E0
39C0
3FC0
1F80
1F80
0F00
0E00
0E00
0E00
0E00
0E00
ENDCHAR

STARTCHAR char160
ENCODING 160
SWIDTH 30 0
DWIDTH 6 0
BBX 0 0 0 0
BITMAP
ENDCHAR

STARTCHAR char161
ENCODING 161
SWIDTH 30 0
DWIDTH 6 0
BBX 3 12 1 0
BITMAP
E0
E0
E0
E0
40
40
E0
E0
E0
E0
E0
E0
ENDCHAR

STARTCHAR char162
ENCODING 162
SWIDTH 4 0
DWIDTH 11 0
BBX 10 12 0 -2
BITMAP
0C00
3F00
7F80
7FC0
E5C0
EC00
E9C0
FFC0
7F80
3F00
0C00
0C00
ENDCHAR

STARTCHAR char163
ENCODING 163
SWIDTH 4 0
DWIDTH 11 0
BBX 10 12 1 0
BITMAP
3E00
7F00
FF80
F380
FC00
FC00
FC00
3800
7800
FF80
FFC0
CF80
ENDCHAR

STARTCHAR char164
ENCODING 164
SWIDTH 0 0
DWIDTH 0 0
BBX 5 3 -2 13
BITMAP
78
70
60
ENDCHAR

STARTCHAR char165
ENCODING 165
SWIDTH 0 0
DWIDTH 0 0
BBX 8 3 -4 13
BITMAP
7F
7E
3C
ENDCHAR

STARTCHAR char166
ENCODING 166
SWIDTH 39 0
DWIDTH 18 0
BBX 0 0 0 0
BITMAP
ENDCHAR

STARTCHAR char167
ENCODING 167
SWIDTH 9 0
DWIDTH 12 0
BBX 11 16 0 -4
BITMAP
0F00
3F80
3FC0
3C00
3F00
7FC0
F3E0
F8E0
7FE0
1FC0
07C0
01C0
79C0
3FC0
3F80
0F00
ENDCHAR

STARTCHAR char168
ENCODING 168
SWIDTH 0 0
DWIDTH 0 0
BBX 8 3 -4 10
BITMAP
E7
E7
E7
ENDCHAR

STARTCHAR char169
ENCODING 169
SWIDTH 19 0
DWIDTH 14 0
BBX 13 12 0 0
BITMAP
0F00
10C0
2020
4790
CC90
D898
D818
D818
4890
4710
3060
0F80
ENDCHAR

STARTCHAR char170
ENCODING 170
SWIDTH 0 0
DWIDTH 0 0
BBX 8 3 -4 13
BITMAP
E7
E7
E7
ENDCHAR

STARTCHAR char171
ENCODING 171
SWIDTH 40 0
DWIDTH 8 0
BBX 6 8 1 1
BITMAP
04
24
FC
FC
90
FC
FC
24
ENDCHAR

STARTCHAR char172
ENCODING 172
SWIDTH 14 0
DWIDTH 13 0
BBX 12 5 0 0
BITMAP
FFF0
0030
0030
0030
0030
ENDCHAR

STARTCHAR char174
ENCODING 174
SWIDTH 19 0
DWIDTH 14 0
BBX 13 12 0 0
BITMAP
0700
18C0
2020
4F90
4D90
CD98
CE18
CF18
4D90
4DD0
3060
0F80
ENDCHAR

STARTCHAR char176
ENCODING 176
SWIDTH 30 0
DWIDTH 6 0
BBX 7 6 -2 6
BITMAP
18
64
C6
C6
24
18
ENDCHAR

STARTCHAR char177
ENCODING 177
SWIDTH 50 0
DWIDTH 10 0
BBX 9 11 0 0
BITMAP
1800
1800
1800
1800
FF80
1800
1800
1800
1800
0000
FF80
ENDCHAR

STARTCHAR char179
ENCODING 179
SWIDTH 39 0
DWIDTH 18 0
BBX 0 0 0 0
BITMAP
ENDCHAR

STARTCHAR char180
ENCODING 180
SWIDTH 0 0
DWIDTH 0 0
BBX 5 3 -2 9
BITMAP
78
70
60
ENDCHAR

STARTCHAR char182
ENCODING 182
SWIDTH 14 0
DWIDTH 13 0
BBX 8 15 2 -3
BITMAP
3F
66
E6
E6
E6
66
26
26
26
26
26
26
26
26
26
ENDCHAR

STARTCHAR char183
ENCODING 183
SWIDTH 15 0
DWIDTH 3 0
BBX 3 3 0 4
BITMAP
E0
E0
E0
ENDCHAR

STARTCHAR char184
ENCODING 184
SWIDTH 0 0
DWIDTH 0 0
BBX 4 5 -2 -4
BITMAP
70
70
70
30
F0
ENDCHAR

STARTCHAR char186
ENCODING 186
SWIDTH 0 0
DWIDTH 0 0
BBX 6 3 -3 13
BITMAP
FC
FC
DC
ENDCHAR

STARTCHAR char187
ENCODING 187
SWIDTH 40 0
DWIDTH 8 0
BBX 6 8 1 1
BITMAP
10
90
FC
FC
24
FC
D8
90
ENDCHAR

STARTCHAR char189
ENCODING 189
SWIDTH 39 0
DWIDTH 18 0
BBX 0 0 0 0
BITMAP
ENDCHAR

STARTCHAR char191
ENCODING 191
SWIDTH 4 0
DWIDTH 11 0
BBX 10 12 0 0
BITMAP
0E00
0E00
0E00
0E00
0E00
1E00
7C00
F800
F3C0
FF80
7F80
3E00
ENDCHAR

STARTCHAR char192
ENCODING 192
SWIDTH 14 0
DWIDTH 13 0
BBX 13 16 0 0
BITMAP
1E00
0E00
0E00
0000
0F00
1F80
1F80
1FC0
3FC0
3DC0
39E0
7FE0
7FE0
FFF0
F0F0
7070
ENDCHAR

STARTCHAR char193
ENCODING 193
SWIDTH 14 0
DWIDTH 13 0
BBX 13 16 0 0
BITMAP
0780
0F00
0E00
0000
0F00
1F80
1F80
1FC0
3FC0
3DC0
39E0
7FE0
7FE0
FFF0
F0F0
7070
ENDCHAR

STARTCHAR char194
ENCODING 194
SWIDTH 14 0
DWIDTH 13 0
BBX 13 16 0 0
BITMAP
0F00
1F00
3B80
0000
0F00
1F80
1F80
1FC0
3FC0
3DC0
39E0
7FE0
7FE0
FFF0
F0F0
7070
ENDCHAR

STARTCHAR char195
ENCODING 195
SWIDTH 14 0
DWIDTH 13 0
BBX 13 16 0 0
BITMAP
1D80
1F80
3F00
0000
0F00
1F80
1F80
1FC0
3FC0
3DC0
39E0
7FE0
7FE0
FFF0
F0F0
7070
ENDCHAR

STARTCHAR char196
ENCODING 196
SWIDTH 14 0
DWIDTH 13 0
BBX 13 16 0 0
BITMAP
39C0
39C0
39C0
0000
1F80
1F80
1F80
3FC0
3FC0
39C0
79E0
7FE0
7FE0
FFF0
E0F0
E070
ENDCHAR

STARTCHAR char197
ENCODING 197
SWIDTH 14 0
DWIDTH 13 0
BBX 13 17 0 0
BITMAP
0600
0F00
0F00
0600
0000
0F00
1F80
1F80
1FC0
3FC0
3FC0
3FE0
7FE0
7FE0
FFF0
F0F0
7070
ENDCHAR

STARTCHAR char198
ENCODING 198
SWIDTH 44 0
DWIDTH 19 0
BBX 17 12 0 0
BITMAP
1FFF00
1FFF00
1FFF00
3CE000
3CFF00
38FF00
78FF00
7FE000
7FFF80
FFFF80
F0FF80
F0FF80
ENDCHAR

STARTCHAR char199
ENCODING 199
SWIDTH 19 0
DWIDTH 14 0
BBX 11 16 1 -4
BITMAP
1F00
3FC0
7FE0
61E0
E000
E000
E000
E1E0
71E0
7FE0
3FC0
3F00
1C00
1E00
0C00
1C00
ENDCHAR

STARTCHAR char200
ENCODING 200
SWIDTH 14 0
DWIDTH 13 0
BBX 11 16 1 0
BITMAP
3800
1C00
1C00
0000
FFC0
FFC0
FFC0
F000
FFC0
FFC0
FFC0
E000
E000
FFE0
FFE0
FFE0
ENDCHAR

STARTCHAR char201
ENCODING 201
SWIDTH 14 0
DWIDTH 13 0
BBX 11 16 1 0
BITMAP
0F00
0E00
1C00
0000
FFC0
FFC0
FFC0
F000
FFC0
FFC0
FFC0
E000
E000
FFE0
FFE0
FFE0
ENDCHAR

STARTCHAR char202
ENCODING 202
SWIDTH 14 0
DWIDTH 13 0
BBX 11 16 1 0
BITMAP
3E00
3E00
7700
0000
FFC0
FFC0
FFC0
F000
FFC0
FFC0
FFC0
E000
E000
FFE0
FFE0
FFE0
ENDCHAR

STARTCHAR char203
ENCODING 203
SWIDTH 14 0
DWIDTH 13 0
BBX 11 16 1 0
BITMAP
7700
7700
7700
0000
FFC0
FFC0
FFC0
F000
FFC0
FFC0
FFC0
F000
F000
FFE0
FFE0
FFE0
ENDCHAR

STARTCHAR char204
ENCODING 204
SWIDTH 30 0
DWIDTH 6 0
BBX 5 16 -1 0
BITMAP
60
70
30
00
38
38
38
38
38
38
38
38
38
38
38
38
ENDCHAR

STARTCHAR char205
ENCODING 205
SWIDTH 30 0
DWIDTH 6 0
BBX 5 16 1 0
BITMAP
78
70
E0
00
70
70
70
70
70
70
70
70
70
70
70
70
ENDCHAR

STARTCHAR char206
ENCODING 206
SWIDTH 30 0
DWIDTH 6 0
BBX 7 16 -1 0
BITMAP
78
7C
EE
00
38
38
38
38
38
38
38
38
38
38
38
38
ENDCHAR

STARTCHAR char207
ENCODING 207
SWIDTH 30 0
DWIDTH 6 0
BBX 7 16 -1 0
BITMAP
EE
EE
EE
00
38
38
38
38
38
38
38
38
38
38
38
38
ENDCHAR

STARTCHAR char209
ENCODING 209
SWIDTH 19 0
DWIDTH 14 0
BBX 11 16 1 0
BITMAP
3F00
3F00
3700
E0E0
F0E0
F8E0
F8E0
FCE0
FEE0
FFE0
EFE0
E7E0
E7E0
E3E0
E1E0
E0E0
ENDCHAR

STARTCHAR char210
ENCODING 210
SWIDTH 24 0
DWIDTH 15 0
BBX 12 16 1 0
BITMAP
3C00
1C00
0E00
0000
1F00
3FC0
7FE0
F0F0
E0F0
E070
E070
E0F0
71E0
7FE0
3FC0
1F00
ENDCHAR

STARTCHAR char211
ENCODING 211
SWIDTH 24 0
DWIDTH 15 0
BBX 12 16 1 0
BITMAP
0F80
0F00
0E00
0000
1F00
3FC0
7FE0
F0F0
E0F0
E070
E070
E0F0
71E0
7FE0
3FC0
1F00
ENDCHAR

STARTCHAR char212
ENCODING 212
SWIDTH 24 0
DWIDTH 15 0
BBX 12 16 1 0
BITMAP
1E00
1F00
3B80
0000
1F00
3FC0
7FE0
F0F0
E0F0
E070
E070
E0F0
71E0
7FE0
3FC0
1F00
ENDCHAR

STARTCHAR char213
ENCODING 213
SWIDTH 24 0
DWIDTH 15 0
BBX 12 16 1 0
BITMAP
1F00
1F00
1700
0000
1F00
3FC0
7FE0
F0F0
E0F0
E070
E070
E0F0
71E0
7FE0
3FC0
1F00
ENDCHAR

STARTCHAR char214
ENCODING 214
SWIDTH 24 0
DWIDTH 15 0
BBX 13 16 0 0
BITMAP
1DC0
1DC0
1DC0
0000
0F80
3FE0
7FF0
78F8
F078
F078
F078
F078
78F8
7FF0
3FE0
0F80
ENDCHAR

STARTCHAR char216
ENCODING 216
SWIDTH 24 0
DWIDTH 15 0
BBX 13 14 0 -1
BITMAP
0008
0FD8
1FF0
3FF0
78F8
71F8
7338
7638
7C78
38F0
3FF0
3FE0
6F80
4000
ENDCHAR

STARTCHAR char217
ENCODING 217
SWIDTH 19 0
DWIDTH 14 0
BBX 11 16 1 0
BITMAP
3C00
1C00
1C00
E0E0
E0E0
E0E0
E0E0
E0E0
E0E0
E0E0
E0E0
E0E0
F1E0
FFE0
7FC0
1F00
ENDCHAR

STARTCHAR char218
ENCODING 218
SWIDTH 19 0
DWIDTH 14 0
BBX 11 16 1 0
BITMAP
0F00
0E00
0E00
E0E0
E0E0
E0E0
E0E0
E0E0
E0E0
E0E0
E0E0
E0E0
F1E0
FFE0
7FC0
1F00
ENDCHAR

STARTCHAR char219
ENCODING 219
SWIDTH 19 0
DWIDTH 14 0
BBX 11 16 1 0
BITMAP
1E00
3F00
3B80
E0E0
E0E0
E0E0
E0E0
E0E0
E0E0
E0E0
E0E0
E0E0
F1E0
FFE0
7FC0
1F00
ENDCHAR

STARTCHAR char220
ENCODING 220
SWIDTH 19 0
DWIDTH 14 0
BBX 11 16 1 0
BITMAP
3B80
3B80
3B80
E0E0
E0E0
E0E0
E0E0
E0E0
E0E0
E0E0
E0E0
E0E0
F1E0
FFE0
7FC0
1F00
ENDCHAR

STARTCHAR char222
ENCODING 222
SWIDTH 39 0
DWIDTH 18 0
BBX 0 0 0 0
BITMAP
ENDCHAR

STARTCHAR char223
ENCODING 223
SWIDTH 9 0
DWIDTH 12 0
BBX 9 12 1 0
BITMAP
3C00
7F00
EF00
E300
EF00
EF00
E780
E380
E380
EF80
EF00
EE00
ENDCHAR

STARTCHAR char224
ENCODING 224
SWIDTH 4 0
DWIDTH 11 0
BBX 10 13 0 0
BITMAP
3C00
3C00
1C00
0000
3F00
7F80
73C0
07C0
7FC0
F9C0
FBC0
FFC0
79C0
ENDCHAR

STARTCHAR char225
ENCODING 225
SWIDTH 4 0
DWIDTH 11 0
BBX 10 12 0 0
BITMAP
0F00
0E00
1C00
3F00
7F80
73C0
07C0
7FC0
F9C0
FBC0
FFC0
79C0
ENDCHAR

STARTCHAR char226
ENCODING 226
SWIDTH 4 0
DWIDTH 11 0
BBX 10 13 0 0
BITMAP
1E00
3E00
7700
0000
3F00
7F80
73C0
07C0
7FC0
F9C0
FBC0
FFC0
79C0
ENDCHAR

STARTCHAR char227
ENCODING 227
SWIDTH 4 0
DWIDTH 11 0
BBX 10 13 0 0
BITMAP
3880
3F00
7F00
0000
3F00
7F80
73C0
07C0
7FC0
F9C0
FBC0
FFC0
79C0
ENDCHAR

STARTCHAR char228
ENCODING 228
SWIDTH 4 0
DWIDTH 11 0
BBX 10 13 0 0
BITMAP
0380
3B80
3B80
0000
1F00
7F80
73C0
07C0
3FC0
79C0
FFC0
FFC0
39C0
ENDCHAR

STARTCHAR char229
ENCODING 229
SWIDTH 4 0
DWIDTH 11 0
BBX 10 13 0 0
BITMAP
0E00
1B00
0E00
0000
1F00
7F80
F3C0
87C0
7FC0
F9C0
FBC0
FFC0
79C0
ENDCHAR

STARTCHAR char230
ENCODING 230
SWIDTH 34 0
DWIDTH 17 0
BBX 16 9 0 0
BITMAP
3F78
7FFE
FBFE
3FFF
7FFF
FF87
EBEF
FFFE
7C78
ENDCHAR

STARTCHAR char231
ENCODING 231
SWIDTH 4 0
DWIDTH 11 0
BBX 10 13 0 -4
BITMAP
1F00
3F80
7FC0
F000
E000
E1C0
73C0
7F80
3F00
1C00
1C00
0C00
1C00
ENDCHAR

STARTCHAR char232
ENCODING 232
SWIDTH 4 0
DWIDTH 11 0
BBX 10 13 0 0
BITMAP
3C00
1C00
1C00
0000
1F00
7F80
7FC0
F9C0
FFC0
F0C0
7FC0
7F80
1F00
ENDCHAR

STARTCHAR char233
ENCODING 233
SWIDTH 4 0
DWIDTH 11 0
BBX 10 12 0 0
BITMAP
0F00
0E00
1C00
1F00
7F80
7FC0
F9C0
FFC0
F0C0
7FC0
7F80
1F00
ENDCHAR

STARTCHAR char234
ENCODING 234
SWIDTH 4 0
DWIDTH 11 0
BBX 10 13 0 0
BITMAP
1E00
3E00
7700
0000
1F00
7F80
7FC0
F9C0
FFC0
F0C0
7FC0
7F80
1F00
ENDCHAR

STARTCHAR char235
ENCODING 235
SWIDTH 4 0
DWIDTH 11 0
BBX 10 13 0 0
BITMAP
7380
7380
7380
0000
1F00
7F80
7FC0
F9C0
FFC0
F1C0
7FC0
7FC0
1F00
ENDCHAR

STARTCHAR char236
ENCODING 236
SWIDTH 30 0
DWIDTH 6 0
BBX 5 13 -1 0
BITMAP
F0
70
30
00
38
38
38
38
38
38
38
38
38
ENDCHAR

STARTCHAR char237
ENCODING 237
SWIDTH 30 0
DWIDTH 6 0
BBX 5 12 1 0
BITMAP
70
E0
C0
E0
E0
E0
E0
E0
E0
E0
E0
E0
ENDCHAR

STARTCHAR char238
ENCODING 238
SWIDTH 30 0
DWIDTH 6 0
BBX 7 13 -1 0
BITMAP
38
7C
EC
00
38
38
38
38
38
38
38
38
38
ENDCHAR

STARTCHAR char239
ENCODING 239
SWIDTH 30 0
DWIDTH 6 0
BBX 7 13 -1 0
BITMAP
EE
EE
EE
00
3C
3C
3C
3C
3C
3C
3C
3C
3C
ENDCHAR

STARTCHAR char241
ENCODING 241
SWIDTH 9 0
DWIDTH 12 0
BBX 9 13 1 0
BITMAP
3900
7E00
7C00
0000
EF00
FF00
FF80
E380
E380
E380
E380
E380
E380
ENDCHAR

STARTCHAR char242
ENCODING 242
SWIDTH 4 0
DWIDTH 11 0
BBX 10 13 0 0
BITMAP
3C00
3C00
1C00
0000
1E00
7F80
7FC0
E1C0
E1C0
F1C0
FF80
7F80
1E00
ENDCHAR

STARTCHAR char243
ENCODING 243
SWIDTH 4 0
DWIDTH 11 0
BBX 10 12 0 0
BITMAP
0F00
0E00
1C00
1E00
7F80
7FC0
E1C0
E1C0
F1C0
FF80
7F80
1E00
ENDCHAR

STARTCHAR char244
ENCODING 244
SWIDTH 4 0
DWIDTH 11 0
BBX 10 13 0 0
BITMAP
3E00
3E00
7700
0000
1E00
7F80
7FC0
E1C0
E1C0
F1C0
FF80
7F80
1E00
ENDCHAR

STARTCHAR char245
ENCODING 245
SWIDTH 4 0
DWIDTH 11 0
BBX 10 13 0 0
BITMAP
3880
7F00
7E00
0000
1E00
7F80
7FC0
E1C0
E1C0
F1C0
FF80
7F80
1E00
ENDCHAR

STARTCHAR char246
ENCODING 246
SWIDTH 4 0
DWIDTH 11 0
BBX 10 12 0 0
BITMAP
7B80
7B80
0380
1E00
7F80
FFC0
F1C0
E1C0
E1C0
FF80
7F80
1E00
ENDCHAR

STARTCHAR char247
ENCODING 247
SWIDTH 50 0
DWIDTH 10 0
BBX 9 7 0 1
BITMAP
1800
1800
1800
FF80
1800
1800
1800
ENDCHAR

STARTCHAR char248
ENCODING 248
SWIDTH 4 0
DWIDTH 11 0
BBX 9 11 1 -1
BITMAP
0100
3F00
7F00
7F80
EF80
FB80
F380
FF00
7F00
7C00
4000
ENDCHAR

STARTCHAR char249
ENCODING 249
SWIDTH 9 0
DWIDTH 12 0
BBX 9 13 1 0
BITMAP
7800
3800
1800
0000
E380
E380
E380
E380
E380
E380
FF80
7F80
7B80
ENDCHAR

STARTCHAR char250
ENCODING 250
SWIDTH 9 0
DWIDTH 12 0
BBX 9 12 1 0
BITMAP
1E00
1C00
1C00
E380
E380
E380
E380
E380
E380
FF80
7F80
7B80
ENDCHAR

STARTCHAR char251
ENCODING 251
SWIDTH 9 0
DWIDTH 12 0
BBX 9 13 1 0
BITMAP
3C00
7C00
7600
0000
E380
E380
E380
E380
E380
E380
FF80
7F80
7B80
ENDCHAR

STARTCHAR char252
ENCODING 252
SWIDTH 9 0
DWIDTH 12 0
BBX 9 13 1 0
BITMAP
7700
7700
7700
0000
E380
E380
E380
E380
E380
E380
FF80
7F80
7B80
ENDCHAR

STARTCHAR char255
ENCODING 255
SWIDTH 4 0
DWIDTH 11 0
BBX 10 16 0 -3
BITMAP
7700
7700
7700
0000
F3C0
F380
7380
7700
3F00
3F00
1E00
1E00
1E00
7C00
7C00
7800
ENDCHAR
ENDFONT
